<svg width="64" height="64" viewBox="0 0 64 64" xmlns="http://www.w3.org/2000/svg">
  <defs>
    <radialGradient id="fav-bg" cx="20%" cy="0%" r="80%">
      <stop offset="0%" stop-color="#4f46e5"/>
      <stop offset="40%" stop-color="#1f2937"/>
      <stop offset="100%" stop-color="#020617"/>
    </radialGradient>
    <linearGradient id="fav-card" x1="0%" y1="0%" x2="100%" y2="100%">
      <stop offset="0%" stop-color="#a855f7"/>
      <stop offset="50%" stop-color="#6366f1"/>
      <stop offset="100%" stop-color="#22c55e"/>
    </linearGradient>
  </defs>

  <!-- outer glow -->
  <rect x="4" y="4" width="56" height="56" rx="18" fill="url(#fav-bg)"/>
  <rect x="4.5" y="4.5" width="55" height="55" rx="18" fill="none" stroke="#1f2937" stroke-width="1"/>

  <!-- notepad card -->
  <rect x="14" y="13" width="36" height="38" rx="9" fill="#020617" stroke="url(#fav-card)" stroke-width="1.5"/>
  <rect x="18" y="18" width="28" height="4" rx="2" fill="#111827"/>
  <circle cx="22" cy="20" r="1.3" fill="#f97316"/>
  <circle cx="27" cy="20" r="1.3" fill="#eab308"/>
  <circle cx="32" cy="20" r="1.3" fill="#22c55e"/>

  <!-- text lines -->
  <rect x="19" y="26" width="24" height="2" rx="1" fill="#1e293b"/>
  <rect x="19" y="31" width="20" height="2" rx="1" fill="#1e293b"/>
  <rect x="19" y="36" width="22" height="2" rx="1" fill="#1e293b"/>

  <!-- stylised S mark -->
  <path d="M32 45c-3.2 0-5.8-1.8-5.8-4.6 0-2.8 2.1-3.9 4.7-4.5l2.2-.5c1.7-.4 2.5-.9 2.5-1.9 0-1.2-1.1-2-2.9-2-1.9 0-3.2.8-3.6 2.2l-3-0.7C27 30.3 29.2 28 32.8 28c3.7 0 6.2 2 6.2 4.9 0 2.7-1.8 3.9-4.8 4.6l-2.2.5c-1.7.4-2.5.9-2.5 2 0 1.2 1.2 2 3 2 1.7 0 3-.7 3.5-2l3 .7C38.2 43.7 35.9 45 32 45z"
        fill="#e5e7eb"/>
</svg>

