<svg width="320" height="80" viewBox="0 0 320 80" xmlns="http://www.w3.org/2000/svg">
  <defs>
    <linearGradient id="logo-bg" x1="0%" y1="0%" x2="100%" y2="100%">
      <stop offset="0%" stop-color="#0b1120"/>
      <stop offset="50%" stop-color="#020617"/>
      <stop offset="100%" stop-color="#000000"/>
    </linearGradient>
    <linearGradient id="logo-accent" x1="0%" y1="0%" x2="100%" y2="100%">
      <stop offset="0%" stop-color="#a855f7"/>
      <stop offset="40%" stop-color="#6366f1"/>
      <stop offset="100%" stop-color="#22c55e"/>
    </linearGradient>
  </defs>

  <!-- card -->
  <rect x="4" y="6" width="312" height="68" rx="20" fill="url(#logo-bg)" stroke="#1e2030" stroke-width="1"/>

  <!-- symbol block -->
  <g transform="translate(18,16)">
    <rect x="0" y="0" width="48" height="48" rx="14" fill="#020617" stroke="url(#logo-accent)" stroke-width="1.6"/>
    <rect x="6" y="8" width="36" height="6" rx="3" fill="#0f172a"/>
    <circle cx="12" cy="11" r="2" fill="#f97316"/>
    <circle cx="19" cy="11" r="2" fill="#eab308"/>
    <circle cx="26" cy="11" r="2" fill="#22c55e"/>

    <!-- lines -->
    <rect x="9" y="20" width="30" height="3" rx="1.5" fill="#1e293b"/>
    <rect x="9" y="26" width="24" height="3" rx="1.5" fill="#1f2937"/>
    <rect x="9" y="32" width="28" height="3" rx="1.5" fill="#1f2937"/>

    <!-- S mark -->
    <path d="M32 40c-3.2 0-5.8-1.8-5.8-4.6 0-2.8 2.1-3.9 4.7-4.5l2.2-.5c1.7-.4 2.5-.9 2.5-1.9
             0-1.2-1.1-2-2.9-2-1.9 0-3.2.8-3.6 2.2L25 28c.7-2.4 3-4.7 6.6-4.7 3.7 0 6.2 2 6.2 4.9
             0 2.7-1.8 3.9-4.8 4.6l-2.2.5c-1.7.4-2.5.9-2.5 2 0 1.2 1.2 2 3 2 1.7 0 3-.7 3.5-2l3 .7C38.2 38.7 35.9 40 32 40z"
          fill="#e5e7eb"/>
  </g>

  <!-- wordmark -->
  <g transform="translate(88,30)" fill="#e5e7eb">
    <path d="M0,17 C0,9.4 4.7,4.5 11.9,4.5 C16.1,4.5 19.3,6.1 21.6,8.9 L18.1,11.2 C16.6,9.3 14.6,8.3 12,8.3
             C7.7,8.3 4.8,11.3 4.8,16.9 C4.8,22.5 7.7,25.5 12,25.5 C14.6,25.5 16.6,24.5 18.1,22.6 L21.6,24.9
             C19.3,27.7 16.1,29.3 11.9,29.3 C4.7,29.3 0,24.5 0,17 Z"/>
    <path d="M29.2,5 h4.4 v23.6 h-4.4 Z"/>
    <path d="M40.4,11.1 h4.2 l0.3,2.7 h0.1 c1.2-1.9 3.1-3.1 5.6-3.1 c3.7,0 6,2.5 6,6.7 v11.2 h-4.4 v-10
             c0-2.5-1.1-3.9-3.3-3.9 c-2.3,0-3.9,1.6-4.4,3.8 c-0.1,0.4-0.1,0.9-0.1,1.3 v8.8 h-4.4 Z"/>
    <path d="M65.4,5 h4.4 v4.3 h-4.4 Z M65.4,11.1 h4.4 v17.5 h-4.4 Z"/>
    <path d="M76.1,19.9 c0-5.6 3.3-9.5 8.4-9.5 c5.1,0 8.4,3.9 8.4,9.5 c0,5.6-3.3,9.5-8.4,9.5 c-5.1,0-8.4-3.9-8.4-9.5 Z
             M88.6,19.9 c0-3.7-1.6-5.9-4.1-5.9 c-2.5,0-4.1,2.2-4.1,5.9 c0,3.7 1.6,5.9 4.1,5.9 c2.5,0 4.1-2.2 4.1-5.9 Z"/>
    <path d="M101.5,11.1 h4.2 l0.3,2.3 h0.1 c1.3-1.6 3-3 5.4-3 c2.6,0 4.3,1.2 5.2,3.2 c1.5-2 3.3-3.2 5.7-3.2
             c3.7,0 5.9,2.5 5.9,6.7 v11.3 h-4.4 v-10 c0-2.5-1.1-3.9-3.2-3.9 c-1.6,0-3,1.1-3.9,2.8 c0,0.4 0.1,0.8 0.1,1.3 v9.8 h-4.4 v-10
             c0-2.5-1.1-3.9-3.2-3.9 c-1.7,0-3,1.2-3.9,2.8 v11.1 h-4.4 Z"/>
  </g>

  <!-- tagline -->
  <text x="90" y="58" fill="#9ca3af" font-family="system-ui, -apple-system, BlinkMacSystemFont, 'Segoe UI', sans-serif"
        font-size="11" letter-spacing="0.18em" text-transform="uppercase">
    LIVE   NOTEPAD
  </text>
</svg>

